<svg width="773" height="579" viewBox="0 0 773 579" fill="none" xmlns="http://www.w3.org/2000/svg">
<g clip-path="url(#clip0_1_2)">
<path d="M133.076 58H80.6763C75.6386 58.0046 70.8085 60.0078 67.2463 63.57C63.6841 67.1322 61.6808 71.9623 61.6763 77V133.81C61.0063 133.77 60.3364 133.71 59.6763 133.63C47.2623 132.324 35.46 127.576 25.6001 119.921C15.7402 112.266 8.21482 102.009 3.8724 90.3065C-0.470016 78.6036 -1.45677 65.9204 1.02339 53.6868C3.50355 41.4532 9.35199 30.1557 17.9093 21.068C26.4667 11.9804 37.3926 5.46408 49.4552 2.25374C61.5178 -0.9566 74.2374 -0.733287 86.1799 2.89852C98.1224 6.53032 108.813 13.4262 117.046 22.8086C125.279 32.191 130.727 43.6869 132.776 56C132.886 56.66 132.986 57.33 133.076 58Z" fill="#F8FAFC"/>
<path d="M751.676 56H80.6763C75.1086 56.0061 69.7707 58.2205 65.8338 62.1575C61.8968 66.0944 59.6824 71.4323 59.6763 77V431C59.6824 436.568 61.8968 441.906 65.8338 445.842C69.7707 449.779 75.1086 451.994 80.6763 452H751.676C757.244 451.994 762.582 449.779 766.519 445.842C770.456 441.906 772.67 436.568 772.676 431V77C772.67 71.4323 770.456 66.0944 766.519 62.1575C762.582 58.2205 757.244 56.0061 751.676 56ZM770.676 431C770.672 436.038 768.668 440.868 765.106 444.43C761.544 447.992 756.714 449.995 751.676 450H80.6763C75.6386 449.995 70.8085 447.992 67.2463 444.43C63.6841 440.868 61.6808 436.038 61.6763 431V77C61.6808 71.9623 63.6841 67.1322 67.2463 63.57C70.8085 60.0078 75.6386 58.0046 80.6763 58H751.676C756.714 58.0046 761.544 60.0078 765.106 63.57C768.668 67.1322 770.672 71.9623 770.676 77V431Z" fill="#1D283A"/>
<path d="M718.676 113.37H113.676C113.411 113.37 113.157 113.264 112.969 113.077C112.782 112.889 112.676 112.635 112.676 112.37C112.676 112.104 112.782 111.85 112.969 111.663C113.157 111.475 113.411 111.37 113.676 111.37H718.676C718.941 111.37 719.196 111.475 719.383 111.663C719.571 111.85 719.676 112.104 719.676 112.37C719.676 112.635 719.571 112.889 719.383 113.077C719.196 113.264 718.941 113.37 718.676 113.37Z" fill="#1D283A"/>
<path d="M284.676 409C284.411 409 284.157 408.895 283.969 408.707C283.782 408.52 283.676 408.265 283.676 408V79C283.676 78.7348 283.782 78.4804 283.969 78.2929C284.157 78.1054 284.411 78 284.676 78C284.941 78 285.196 78.1054 285.383 78.2929C285.571 78.4804 285.676 78.7348 285.676 79V408C285.676 408.265 285.571 408.52 285.383 408.707C285.196 408.895 284.941 409 284.676 409Z" fill="#1D283A"/>
<path d="M435.676 409C435.411 409 435.157 408.895 434.969 408.707C434.782 408.52 434.676 408.265 434.676 408V79C434.676 78.7348 434.782 78.4804 434.969 78.2929C435.157 78.1054 435.411 78 435.676 78C435.941 78 436.196 78.1054 436.383 78.2929C436.571 78.4804 436.676 78.7348 436.676 79V408C436.676 408.265 436.571 408.52 436.383 408.707C436.196 408.895 435.941 409 435.676 409Z" fill="#1D283A"/>
<path d="M586.676 409C586.411 409 586.157 408.895 585.969 408.707C585.782 408.52 585.676 408.265 585.676 408V79C585.676 78.7348 585.782 78.4804 585.969 78.2929C586.157 78.1054 586.411 78 586.676 78C586.941 78 587.196 78.1054 587.383 78.2929C587.571 78.4804 587.676 78.7348 587.676 79V408C587.676 408.265 587.571 408.52 587.383 408.707C587.196 408.895 586.941 409 586.676 409Z" fill="#1D283A"/>
<path d="M187.592 216.587H151.052C149.859 216.586 148.715 216.112 147.871 215.268C147.028 214.424 146.553 213.28 146.552 212.087V168.968C146.553 167.775 147.028 166.631 147.871 165.787C148.715 164.944 149.859 164.469 151.052 164.468H187.592C188.785 164.469 189.929 164.944 190.772 165.787C191.616 166.631 192.091 167.775 192.092 168.968V212.087C192.091 213.28 191.616 214.424 190.772 215.268C189.929 216.112 188.785 216.586 187.592 216.587Z" fill="#3B82F6"/>
<path d="M239.592 339.587H203.052C201.859 339.586 200.715 339.112 199.871 338.268C199.028 337.424 198.553 336.28 198.552 335.087V291.968C198.553 290.775 199.028 289.631 199.871 288.787C200.715 287.944 201.859 287.469 203.052 287.468H239.592C240.785 287.469 241.929 287.944 242.772 288.787C243.616 289.631 244.091 290.775 244.092 291.968V335.087C244.091 336.28 243.616 337.424 242.772 338.268C241.929 339.112 240.785 339.586 239.592 339.587Z" fill="#3B82F6"/>
<path d="M357.592 242.587H321.052C319.859 242.586 318.715 242.112 317.872 241.268C317.028 240.424 316.553 239.28 316.552 238.087V194.968C316.553 193.775 317.028 192.631 317.872 191.787C318.715 190.944 319.859 190.469 321.052 190.468H357.592C358.785 190.469 359.929 190.944 360.773 191.787C361.616 192.631 362.091 193.775 362.092 194.968V238.087C362.091 239.28 361.616 240.424 360.773 241.268C359.929 242.112 358.785 242.586 357.592 242.587Z" fill="#3B82F6"/>
<path d="M510.592 195.587H474.052C472.859 195.586 471.715 195.112 470.872 194.268C470.028 193.424 469.553 192.28 469.552 191.087V147.968C469.553 146.775 470.028 145.631 470.872 144.787C471.715 143.944 472.859 143.469 474.052 143.468H510.592C511.785 143.469 512.929 143.944 513.773 144.787C514.616 145.631 515.091 146.775 515.092 147.968V191.087C515.091 192.28 514.616 193.424 513.773 194.268C512.929 195.112 511.785 195.586 510.592 195.587Z" fill="#3B82F6"/>
<path d="M651.592 195.587H615.052C613.859 195.586 612.715 195.112 611.872 194.268C611.028 193.424 610.553 192.28 610.552 191.087V147.968C610.553 146.775 611.028 145.631 611.872 144.787C612.715 143.944 613.859 143.469 615.052 143.468H651.592C652.785 143.469 653.929 143.944 654.773 144.787C655.616 145.631 656.091 146.775 656.092 147.968V191.087C656.091 192.28 655.616 193.424 654.773 194.268C653.929 195.112 652.785 195.586 651.592 195.587Z" fill="#3B82F6"/>
<path d="M716.592 207.587H680.052C678.859 207.586 677.715 207.112 676.872 206.268C676.028 205.424 675.553 204.28 675.552 203.087V159.968C675.553 158.775 676.028 157.631 676.872 156.787C677.715 155.944 678.859 155.469 680.052 155.468H716.592C717.785 155.469 718.929 155.944 719.773 156.787C720.616 157.631 721.091 158.775 721.092 159.968V203.087C721.091 204.28 720.616 205.424 719.773 206.268C718.929 207.112 717.785 207.586 716.592 207.587Z" fill="#F8FAFC"/>
<path d="M687.592 284.587H651.052C649.859 284.586 648.715 284.112 647.872 283.268C647.028 282.424 646.553 281.28 646.552 280.087V236.968C646.553 235.775 647.028 234.631 647.872 233.787C648.715 232.944 649.859 232.469 651.052 232.468H687.592C688.785 232.469 689.929 232.944 690.773 233.787C691.616 234.631 692.091 235.775 692.092 236.968V280.087C692.091 281.28 691.616 282.424 690.773 283.268C689.929 284.112 688.785 284.586 687.592 284.587Z" fill="#F8FAFC"/>
<path d="M563.592 268.587H527.052C525.859 268.586 524.715 268.112 523.872 267.268C523.028 266.424 522.553 265.28 522.552 264.087V220.968C522.553 219.775 523.028 218.631 523.872 217.787C524.715 216.944 525.859 216.469 527.052 216.468H563.592C564.785 216.469 565.929 216.944 566.773 217.787C567.616 218.631 568.091 219.775 568.092 220.968V264.087C568.091 265.28 567.616 266.424 566.773 267.268C565.929 268.112 564.785 268.586 563.592 268.587Z" fill="#EC4899"/>
<path d="M492.592 284.587H456.052C454.859 284.586 453.715 284.112 452.872 283.268C452.028 282.424 451.553 281.28 451.552 280.087V236.968C451.553 235.775 452.028 234.631 452.872 233.787C453.715 232.944 454.859 232.469 456.052 232.468H492.592C493.785 232.469 494.929 232.944 495.773 233.787C496.616 234.631 497.091 235.775 497.092 236.968V280.087C497.091 281.28 496.616 282.424 495.773 283.268C494.929 284.112 493.785 284.586 492.592 284.587Z" fill="#F8FAFC"/>
<path d="M339.592 352.587H303.052C301.859 352.586 300.715 352.112 299.872 351.268C299.028 350.424 298.553 349.28 298.552 348.087V304.968C298.553 303.775 299.028 302.631 299.872 301.787C300.715 300.944 301.859 300.469 303.052 300.468H339.592C340.785 300.469 341.929 300.944 342.773 301.787C343.616 302.631 344.091 303.775 344.092 304.968V348.087C344.091 349.28 343.616 350.424 342.773 351.268C341.929 352.112 340.785 352.586 339.592 352.587Z" fill="#F8FAFC"/>
<path d="M154.592 295.587H118.052C116.859 295.586 115.715 295.112 114.871 294.268C114.028 293.424 113.553 292.28 113.552 291.087V247.968C113.553 246.775 114.028 245.631 114.871 244.787C115.715 243.944 116.859 243.469 118.052 243.468H154.592C155.785 243.469 156.929 243.944 157.772 244.787C158.616 245.631 159.091 246.775 159.092 247.968V291.087C159.091 292.28 158.616 293.424 157.772 294.268C156.929 295.112 155.785 295.586 154.592 295.587Z" fill="#EC4899"/>
<path d="M257.592 216.587H221.052C219.859 216.586 218.715 216.112 217.871 215.268C217.028 214.424 216.553 213.28 216.552 212.087V168.968C216.553 167.775 217.028 166.631 217.871 165.787C218.715 164.944 219.859 164.469 221.052 164.468H257.592C258.785 164.469 259.929 164.944 260.772 165.787C261.616 166.631 262.091 167.775 262.092 168.968V212.087C262.091 213.28 261.616 214.424 260.772 215.268C259.929 216.112 258.785 216.586 257.592 216.587Z" fill="#F8FAFC"/>
<path d="M227.676 97H170.676C169.615 97 168.598 96.5786 167.848 95.8284C167.098 95.0783 166.676 94.0609 166.676 93C166.676 91.9391 167.098 90.9217 167.848 90.1716C168.598 89.4214 169.615 89 170.676 89H227.676C228.737 89 229.755 89.4214 230.505 90.1716C231.255 90.9217 231.676 91.9391 231.676 93C231.676 94.0609 231.255 95.0783 230.505 95.8284C229.755 96.5786 228.737 97 227.676 97Z" fill="#F8FAFC"/>
<path d="M388.676 97H331.676C330.615 97 329.598 96.5786 328.848 95.8284C328.098 95.0783 327.676 94.0609 327.676 93C327.676 91.9391 328.098 90.9217 328.848 90.1716C329.598 89.4214 330.615 89 331.676 89H388.676C389.737 89 390.755 89.4214 391.505 90.1716C392.255 90.9217 392.676 91.9391 392.676 93C392.676 94.0609 392.255 95.0783 391.505 95.8284C390.755 96.5786 389.737 97 388.676 97Z" fill="#F8FAFC"/>
<path d="M539.676 97H482.676C481.615 97 480.598 96.5786 479.848 95.8284C479.098 95.0783 478.676 94.0609 478.676 93C478.676 91.9391 479.098 90.9217 479.848 90.1716C480.598 89.4214 481.615 89 482.676 89H539.676C540.737 89 541.755 89.4214 542.505 90.1716C543.255 90.9217 543.676 91.9391 543.676 93C543.676 94.0609 543.255 95.0783 542.505 95.8284C541.755 96.5786 540.737 97 539.676 97Z" fill="#F8FAFC"/>
<path d="M680.676 97H623.676C622.615 97 621.598 96.5786 620.848 95.8284C620.098 95.0783 619.676 94.0609 619.676 93C619.676 91.9391 620.098 90.9217 620.848 90.1716C621.598 89.4214 622.615 89 623.676 89H680.676C681.737 89 682.755 89.4214 683.505 90.1716C684.255 90.9217 684.676 91.9391 684.676 93C684.676 94.0609 684.255 95.0783 683.505 95.8284C682.755 96.5786 681.737 97 680.676 97Z" fill="#F8FAFC"/>
<path d="M100.009 389.891C98.5461 389.748 97.1322 389.286 95.8672 388.537C94.6021 387.788 93.5166 386.771 92.6871 385.557C91.8576 384.343 91.3044 382.963 91.0663 381.512C90.8282 380.061 90.9111 378.576 91.3091 377.161L65.6763 353.3L79.229 349.862L104.435 370.305C106.768 371.132 108.717 372.785 109.912 374.952C111.108 377.119 111.467 379.65 110.921 382.064C110.376 384.478 108.964 386.609 106.953 388.051C104.941 389.494 102.471 390.149 100.009 389.891Z" fill="#FFB8B8"/>
<path d="M135.404 566.253H147.664L153.496 518.965H135.402L135.404 566.253Z" fill="#FFB8B8"/>
<path d="M171.308 577.636L132.777 577.637L132.777 562.75L156.421 562.749C160.369 562.749 164.155 564.317 166.947 567.109C169.739 569.901 171.308 573.687 171.308 577.636Z" fill="#1D283A"/>
<path d="M51.345 557.401L63.193 560.555L80.994 516.359L63.509 511.705L51.345 557.401Z" fill="#FFB8B8"/>
<path d="M83.113 577.639L45.8788 567.729L49.708 553.343L72.5563 559.424C76.3717 560.44 79.6273 562.929 81.6071 566.345C83.5869 569.761 84.1285 573.824 83.113 577.639Z" fill="#1D283A"/>
<path d="M150.961 557.3H132.254C131.072 557.304 129.932 556.866 129.057 556.071C128.182 555.277 127.637 554.183 127.528 553.007L116.171 435.075C116.088 434.21 115.707 433.401 115.093 432.786C114.479 432.171 113.67 431.789 112.805 431.704C111.94 431.62 111.073 431.838 110.351 432.323C109.63 432.808 109.099 433.528 108.85 434.36L75.8767 544.56C75.528 545.731 74.7405 546.722 73.6785 547.327C72.6165 547.932 71.3621 548.103 70.1767 547.806L52.7736 543.454C52.1662 543.302 51.5949 543.032 51.0924 542.658C50.5899 542.285 50.1663 541.816 49.8459 541.278C49.5255 540.74 49.3146 540.144 49.2254 539.524C49.1363 538.905 49.1706 538.273 49.3264 537.667C49.6105 536.557 77.737 426.639 77.9826 425.509C84.3554 378.541 91.9797 365.955 96.0756 359.194C96.4147 358.635 96.7263 358.12 97.0068 357.634C97.3579 357.025 99.5192 350.989 100.89 347.069C101.068 346.432 101.377 345.838 101.796 345.325C102.215 344.813 102.736 344.393 103.325 344.092C120.536 335.29 140.673 341.383 146.435 343.46C147.39 343.796 148.21 344.433 148.773 345.275C166.057 371.347 157.575 522.767 155.699 552.856C155.621 554.06 155.088 555.189 154.208 556.014C153.328 556.839 152.167 557.299 150.961 557.3Z" fill="#1D283A"/>
<path d="M102.684 258.585C116.249 258.585 127.245 247.589 127.245 234.024C127.245 220.46 116.249 209.463 102.684 209.463C89.1194 209.463 78.1231 220.46 78.1231 234.024C78.1231 247.589 89.1194 258.585 102.684 258.585Z" fill="#FFB8B8"/>
<path d="M100.082 351.838L99.9053 351.667C99.5742 351.347 66.8496 319.287 71.0847 289.643C72.896 276.963 83.155 268.861 100.752 266.212C107.217 265.252 113.812 266.657 119.323 270.17C124.835 273.683 128.893 279.067 130.752 285.333L148.152 344.817L100.082 351.838Z" fill="#F8FAFC"/>
<path d="M83.3328 374.641L60.0144 351.47C58.42 349.876 57.2624 347.899 56.653 345.729C56.0436 343.559 56.0028 341.269 56.5347 339.078L67.8232 293.159C68.1614 291.783 68.7783 290.491 69.6359 289.363C70.4935 288.235 71.5734 287.296 72.8089 286.602C74.0444 285.908 75.4091 285.475 76.8186 285.33C78.228 285.185 79.6523 285.331 81.0031 285.759C83.5779 286.589 85.7285 288.388 86.9995 290.776C88.2705 293.164 88.5619 295.953 87.8122 298.553L75.9277 338.949L95.146 359.586L83.3328 374.641Z" fill="#F8FAFC"/>
<path d="M208.404 295.562C207.788 296.897 206.886 298.08 205.763 299.028C204.64 299.977 203.322 300.667 201.903 301.052C200.484 301.436 198.998 301.504 197.55 301.252C196.101 300.999 194.726 300.432 193.521 299.591L162.391 315.726L163.767 302.02L191.364 284.941C192.912 283.009 195.114 281.713 197.554 281.297C199.994 280.88 202.501 281.374 204.602 282.683C206.702 283.992 208.25 286.026 208.95 288.4C209.651 290.774 209.457 293.322 208.404 295.562Z" fill="#FFB8B8"/>
<path d="M190.121 305.765L159.775 318.878C157.755 319.744 155.546 320.076 153.361 319.841C151.176 319.607 149.088 318.814 147.298 317.54L108.709 289.891C107.557 289.065 106.587 288.013 105.859 286.797C105.13 285.582 104.659 284.23 104.474 282.826C104.289 281.421 104.394 279.993 104.783 278.631C105.172 277.268 105.837 276 106.735 274.905C108.463 272.822 110.932 271.494 113.622 271.202C116.312 270.909 119.009 271.675 121.144 273.337L154.232 299.379L180.533 289.204L190.121 305.765Z" fill="#F8FAFC"/>
<path d="M106.756 241.895C109.786 238.098 115.447 237.894 119.609 235.39C125.061 232.109 127.315 224.779 125.558 218.664C123.801 212.549 118.62 207.783 112.679 205.503C106.739 203.224 100.13 203.196 93.8634 204.298C84.5332 205.938 75.3473 210.293 69.6568 217.867C63.9664 225.441 62.5183 236.533 67.6754 244.479C70.0456 248.132 73.7046 251.146 74.6509 255.396C75.8932 260.976 71.9794 266.357 67.7866 270.242C63.0099 274.669 57.5296 278.376 53.3447 283.365C49.1598 288.355 46.3691 295.171 48.2787 301.397C49.8787 306.614 54.5346 310.457 59.6401 312.381C64.7457 314.306 70.3062 314.584 75.7614 314.691C81.0586 314.794 86.685 314.666 91.1474 311.809C95.9245 308.752 98.4752 302.951 98.6636 297.282C98.8521 291.614 96.9578 286.06 94.419 280.988C92.9058 277.965 91.1463 275.035 90.1408 271.808C89.1353 268.58 88.9611 264.917 90.5714 261.945C92.2641 258.82 95.6885 256.936 99.1755 256.251C99.3567 256.215 99.5484 256.183 99.7488 256.155C100.741 256.026 101.697 255.698 102.558 255.189C103.42 254.681 104.169 254.002 104.761 253.196C105.353 252.39 105.775 251.471 106.003 250.497C106.23 249.523 106.257 248.512 106.082 247.527C105.685 245.313 105.719 243.193 106.756 241.895Z" fill="#1D283A"/>
<path d="M434.229 567.3H421.969L416.137 520.012L434.231 520.013L434.229 567.3Z" fill="#A0616A"/>
<path d="M413.212 563.797H436.856V578.684H398.325C398.325 576.729 398.71 574.793 399.458 572.987C400.206 571.181 401.303 569.539 402.685 568.157C404.068 566.775 405.709 565.678 407.515 564.93C409.321 564.182 411.257 563.797 413.212 563.797Z" fill="#1D283A"/>
<path d="M523.184 553.413L512.033 558.506L487.079 517.917L503.538 510.399L523.184 553.413Z" fill="#A0616A"/>
<path d="M502.612 558.958L524.118 549.135L530.303 562.676L495.256 578.685C494.443 576.906 493.989 574.985 493.919 573.032C493.85 571.078 494.165 569.13 494.848 567.298C495.531 565.466 496.568 563.787 497.901 562.356C499.233 560.925 500.834 559.771 502.612 558.958Z" fill="#1D283A"/>
<path d="M487.482 407.857C488.656 406.973 489.623 405.842 490.313 404.544C491.003 403.246 491.401 401.813 491.477 400.345C491.553 398.877 491.307 397.41 490.755 396.047C490.203 394.685 489.359 393.46 488.283 392.458L502.694 359.759L484.386 362.861L473.507 393.438C471.945 395.358 471.142 397.784 471.249 400.257C471.357 402.73 472.367 405.077 474.09 406.855C475.812 408.632 478.127 409.716 480.595 409.9C483.063 410.085 485.514 409.358 487.482 407.857Z" fill="#A0616A"/>
<path d="M433.448 554.831H421.736C420.6 554.827 419.507 554.396 418.675 553.622C417.843 552.849 417.334 551.79 417.247 550.658L410.86 380.099C410.813 379.445 410.909 378.789 411.141 378.177C411.374 377.564 411.737 377.009 412.206 376.552C412.675 376.094 413.239 375.745 413.857 375.527C414.475 375.31 415.133 375.231 415.786 375.294L483.521 382.488C484.618 382.595 485.638 383.102 486.387 383.912C487.136 384.722 487.562 385.778 487.583 386.881L489.002 462.117C489.01 462.525 489.089 462.929 489.236 463.31L517.021 535.363C517.236 535.919 517.338 536.513 517.321 537.109C517.304 537.706 517.168 538.293 516.922 538.836C516.677 539.38 516.325 539.869 515.888 540.275C515.451 540.682 514.938 540.997 514.378 541.203L502.51 545.576C501.479 545.956 500.345 545.946 499.321 545.547C498.298 545.148 497.455 544.389 496.952 543.412L462.82 477.043C462.634 476.682 462.498 476.298 462.416 475.901L456.585 447.807C456.416 446.992 455.962 446.265 455.305 445.754C454.648 445.244 453.831 444.984 453 445.022C452.168 445.06 451.378 445.392 450.77 445.96C450.162 446.527 449.776 447.293 449.681 448.119L437.918 550.843C437.793 551.941 437.268 552.954 436.443 553.69C435.619 554.425 434.552 554.832 433.448 554.831Z" fill="#1D283A"/>
<path d="M439.279 246.739C452.844 246.739 463.84 235.743 463.84 222.178C463.84 208.613 452.844 197.617 439.279 197.617C425.715 197.617 414.718 208.613 414.718 222.178C414.718 235.743 425.715 246.739 439.279 246.739Z" fill="#A0616A"/>
<path d="M456.123 395.694C439.467 395.511 423.208 390.586 409.25 381.496L409.011 381.331L409.036 381.042L418.431 271.626C418.755 267.913 420.412 264.444 423.095 261.859C425.779 259.274 429.308 257.748 433.03 257.564C445.206 257.004 461.561 257.71 470.316 264.231C483.546 274.085 489.923 288.924 487.811 304.943C483.431 338.162 488.393 382.972 488.973 387.972L489.015 388.333L488.686 388.484C478.486 393.229 467.373 395.69 456.123 395.694Z" fill="#3B82F6"/>
<path d="M488.86 388.158C488.168 388.156 487.483 388.012 486.849 387.733C486.216 387.453 485.647 387.046 485.179 386.536L479.807 380.674C479.226 380.037 478.819 379.262 478.625 378.422C478.431 377.582 478.456 376.707 478.697 375.879L490.948 334.416L472.308 295.272C471.438 293.44 471.225 291.364 471.705 289.393C472.128 287.662 473.065 286.101 474.393 284.915C475.722 283.728 477.379 282.972 479.145 282.747C480.912 282.521 482.706 282.836 484.29 283.65C485.874 284.465 487.173 285.74 488.018 287.309L513.312 328.351C514.34 330.016 514.943 331.907 515.069 333.86C515.194 335.812 514.838 337.766 514.033 339.549L493.423 385.214C493.083 385.969 492.561 386.627 491.904 387.13C491.246 387.633 490.474 387.964 489.656 388.094C489.393 388.136 489.127 388.157 488.86 388.158Z" fill="#3B82F6"/>
<path d="M315.738 308.953C316.917 309.83 318.275 310.438 319.715 310.734C321.155 311.03 322.642 311.006 324.072 310.665C325.502 310.324 326.84 309.674 327.991 308.76C329.143 307.846 330.08 306.69 330.736 305.375L366.174 309.971L358.03 293.283L325.626 291.477C323.343 290.52 320.789 290.434 318.447 291.235C316.105 292.036 314.139 293.668 312.92 295.823C311.701 297.977 311.315 300.503 311.834 302.923C312.353 305.343 313.742 307.488 315.738 308.953Z" fill="#A0616A"/>
<path d="M393.849 318.067C393.232 318.067 392.616 318.024 392.005 317.939L336.254 310.207C335.343 310.082 334.477 309.732 333.735 309.189C332.993 308.646 332.398 307.926 332.003 307.096C331.875 306.828 331.769 306.551 331.685 306.267C331.469 305.528 331.409 304.753 331.508 303.991C331.607 303.228 331.863 302.494 332.26 301.835L336.873 294.186C337.37 293.369 338.068 292.692 338.9 292.222C339.733 291.752 340.673 291.503 341.629 291.5H341.637L390.233 291.556L426.527 259.039C428.215 257.529 430.372 256.647 432.634 256.539C434.62 256.447 436.588 256.959 438.277 258.008C439.966 259.057 441.298 260.593 442.096 262.414C442.895 264.235 443.122 266.256 442.749 268.209C442.376 270.162 441.42 271.956 440.006 273.355L403.791 313.633C402.538 315.028 401.005 316.144 399.292 316.908C397.579 317.672 395.725 318.067 393.849 318.067Z" fill="#3B82F6"/>
<path d="M442.072 244.028C444.316 238.833 446.215 231.915 441.91 228.243C439.413 226.113 435.817 226.108 432.545 225.843C423.328 225.096 413.839 220.855 409.334 212.78C404.829 204.704 407.345 192.695 415.844 189.052C421.574 186.596 428.142 188.269 434.139 189.969L452.145 195.075C457.495 196.592 463.112 198.265 466.964 202.277C473.106 208.674 472.647 219.488 467.768 226.895C462.889 234.301 455.542 242.025 447.131 244.837L442.072 244.028Z" fill="#1D283A"/>
<path d="M690.485 579.01H-47.8093C-47.9659 579.01 -48.1211 578.98 -48.266 578.92C-48.4109 578.86 -48.5425 578.773 -48.6534 578.662C-48.7644 578.551 -48.8524 578.42 -48.9124 578.275C-48.9725 578.131 -49.0034 577.976 -49.0034 577.819C-49.0034 577.662 -48.9725 577.507 -48.9124 577.362C-48.8524 577.218 -48.7644 577.086 -48.6534 576.976C-48.5425 576.865 -48.4109 576.777 -48.266 576.718C-48.1211 576.658 -47.9659 576.628 -47.8093 576.628H690.485C690.641 576.628 690.797 576.658 690.941 576.718C691.086 576.777 691.218 576.865 691.329 576.976C691.44 577.086 691.528 577.218 691.588 577.362C691.648 577.507 691.679 577.662 691.679 577.819C691.679 577.976 691.648 578.131 691.588 578.275C691.528 578.42 691.44 578.551 691.329 578.662C691.218 578.773 691.086 578.86 690.941 578.92C690.797 578.98 690.641 579.01 690.485 579.01Z" fill="#1D283A"/>
</g>
<defs>
<clipPath id="clip0_1_2">
<rect width="821.676" height="579.01" fill="white" transform="translate(-49)"/>
</clipPath>
</defs>
</svg>
